<svg t="1670994523248" class="icon" viewBox="0 0 1024 1024" version="1.1" xmlns="http://www.w3.org/2000/svg" p-id="4623" width="200" height="200"><path d="M512.033482 0c-194.866921 0-352.233678 35.379619-352.233678 79.062845v181.719542c0 21.428665 17.098289 38.102845 38.504632 38.102845h58.348469l27.589406 331.965733c4.285733 51.629689 47.455564 92.031651 99.219182 92.031651h63.504741v234.956381a66.138681 66.138681 0 0 0 66.161003 66.161003 66.161003 66.161003 0 0 0 66.183324-66.161003V722.882616h61.87527c51.78594 0 94.955771-40.401962 99.241504-92.031651l27.611728-331.965733h58.326147c21.3617 0 37.790343-16.67418 37.790343-38.102845V79.062845C864.222518 35.379619 706.85576 0 512.033482 0z" p-id="4624" fill="#FFFFFF"></path></svg>